<?xml version="1.0" encoding="UTF-8"?><svg id="Laag_1" xmlns="http://www.w3.org/2000/svg" viewBox="0 0 65.56 56.67"><path d="M6.51,3c2.1,0,3.44,1.3,3.44,2.98,.06,1.62-1.34,2.92-3.57,2.92-1.98,0-3.38-1.3-3.38-2.92s1.47-2.98,3.51-2.98m2.8,10.34v26.21H3.7V13.34h5.61M6.51,0C2.86,0,0,2.63,0,5.98c0,1.91,.93,3.58,2.4,4.66-1,.49-1.7,1.51-1.7,2.7v26.21c0,1.66,1.34,3,3,3h5.61c1.66,0,3-1.34,3-3V13.34c0-1.2-.7-2.23-1.72-2.71,.29-.21,.56-.44,.8-.7,1.05-1.09,1.6-2.51,1.55-4.01-.03-3.38-2.79-5.92-6.44-5.92h0Z"/><path d="M33.97,12.75c4.27,0,10.9,2.17,10.9,11.15v15.65h-5.61v-15.11c0-4.22-1.85-7.74-7.14-7.74-3.7,0-6.56,2.22-7.52,4.87-.26,.6-.38,1.41-.38,2.22v15.76h-5.61V20.43c0-2.71-.06-4.93-.25-7.09h4.97l.32,4.33h.13c1.53-2.49,5.1-4.93,10.2-4.93m0-3c-3.25,0-5.96,.82-8.09,2.01-.53-.86-1.48-1.42-2.55-1.42h-4.97c-.84,0-1.64,.35-2.21,.97-.57,.62-.85,1.45-.78,2.29,.17,1.94,.24,3.98,.24,6.83v19.11c0,1.66,1.34,3,3,3h5.61c1.66,0,3-1.34,3-3v-15.76c0-.58,.1-.95,.14-1.04,.02-.05,.05-.11,.07-.17,.5-1.39,2.18-2.89,4.7-2.89,2.15,0,4.14,.57,4.14,4.74v15.11c0,1.66,1.34,3,3,3h5.61c1.66,0,3-1.34,3-3v-15.65c0-9.78-6.98-14.15-13.9-14.15h0Z"/></svg>